<?xml version="1.0" encoding="utf-8"?>
<!-- Generator: Adobe Illustrator 28.1.0, SVG Export Plug-In . SVG Version: 6.00 Build 0)  -->
<svg version="1.1" id="Laag_1" xmlns="http://www.w3.org/2000/svg" xmlns:xlink="http://www.w3.org/1999/xlink" x="0px" y="0px"
	 viewBox="0 0 600 600" style="enable-background:new 0 0 600 600;" xml:space="preserve">
<style type="text/css">
	.st0{fill:#F9F9FF;}
	.st1{display:none;fill:#80C28A;}
	.st2{display:none;}
	.st3{display:inline;}
	.st4{fill:#E63625;}
	.st5{fill:#C2CF20;}
	.st6{fill:#2553A1;}
</style>
<path class="st0" d="M487.6,600H112.4C50.3,600,0,549.7,0,487.6V112.4C0,50.3,50.3,0,112.4,0h375.2C549.7,0,600,50.3,600,112.4
	v375.2C600,549.7,549.7,600,487.6,600z"/>
<rect class="st1" width="600" height="600"/>
<g class="st2">
	<g class="st3">
		<path d="M232.4,235.9l-27-27.9c9.1-12.9,22.1-23.2,39-31.1c16.9-7.8,35.1-11.7,54.8-11.7l-0.4,37.1c-12.2,0-24.3,3.1-36.1,9.2
			C250.8,217.6,240.8,225.7,232.4,235.9z M292.6,450.3c-7.9,0-14.7-2.8-20.4-8.5s-8.5-12.5-8.5-20.4c0-8.1,2.8-14.9,8.5-20.5
			s12.5-8.4,20.4-8.4c8.1,0,14.9,2.8,20.5,8.4s8.4,12.4,8.4,20.5c0,7.9-2.8,14.7-8.4,20.4C307.5,447.5,300.6,450.3,292.6,450.3z
			 M272.7,357.3v-18.8c0-12.9,2.7-24.2,8-34.1c5.3-9.8,13.3-18.1,24-24.9c10.5-6.5,18.5-13.6,23.7-21.4c5.3-7.7,7.9-16.1,7.9-25.1
			c0-9.8-3.3-17.3-9.8-22.8c-6.5-5.4-15.8-8.1-27.7-8.1l0.4-37.1c25.4,0,45.1,5.8,59.1,17.3s21,27.8,21,48.7
			c0,14.5-3.6,27.6-10.8,39.5c-7.2,11.9-18.1,22.4-32.5,31.6c-8.3,5.5-14.6,11.4-18.8,17.9c-4.2,6.4-6.2,13.5-6.2,21.2v16
			L272.7,357.3L272.7,357.3z"/>
	</g>
</g>
<circle class="st4" cx="196.5" cy="373.5" r="125"/>
<circle class="st5" cx="395.5" cy="363.5" r="125"/>
<circle class="st6" cx="300" cy="199" r="125"/>
</svg>
