<?xml version="1.0" encoding="utf-8"?>
<!-- Generator: Adobe Illustrator 28.1.0, SVG Export Plug-In . SVG Version: 6.00 Build 0)  -->
<svg version="1.1" id="Laag_1" xmlns="http://www.w3.org/2000/svg" xmlns:xlink="http://www.w3.org/1999/xlink" x="0px" y="0px"
	 viewBox="0 0 600 600" style="enable-background:new 0 0 600 600;" xml:space="preserve">
<style type="text/css">
	.st0{display:none;fill:#F39C9F;}
	.st1{fill:#F39C9F;}
	.st2{display:none;}
	.st3{display:inline;}
	.st4{display:none;fill:#E63625;}
	.st5{display:none;fill:#C2CF20;}
	.st6{display:none;fill:#2553A1;}
	.st7{fill:none;}
	.st8{font-family:'BerlinSansFB-Reg';}
	.st9{font-size:350px;}
	.st10{font-size:450px;}
</style>
<path class="st0" d="M487.6,600H112.4C50.3,600,0,549.7,0,487.6V112.4C0,50.3,50.3,0,112.4,0h375.2C549.7,0,600,50.3,600,112.4
	v375.2C600,549.7,549.7,600,487.6,600z"/>
<rect class="st1" width="600" height="600"/>
<g class="st2">
	<g class="st3">
		<path d="M232.4,235.9l-27-27.9c9.1-12.9,22.1-23.2,39-31.1c16.9-7.8,35.1-11.7,54.8-11.7l-0.4,37.1c-12.2,0-24.3,3.1-36.1,9.2
			C250.8,217.6,240.8,225.7,232.4,235.9z M292.6,450.3c-7.9,0-14.7-2.8-20.4-8.5s-8.5-12.5-8.5-20.4c0-8.1,2.8-14.9,8.5-20.5
			s12.5-8.4,20.4-8.4c8.1,0,14.9,2.8,20.5,8.4s8.4,12.4,8.4,20.5c0,7.9-2.8,14.7-8.4,20.4C307.5,447.5,300.6,450.3,292.6,450.3z
			 M272.7,357.3v-18.8c0-12.9,2.7-24.2,8-34.1c5.3-9.8,13.3-18.1,24-24.9c10.5-6.5,18.5-13.6,23.7-21.4c5.3-7.7,7.9-16.1,7.9-25.1
			c0-9.8-3.3-17.3-9.8-22.8c-6.5-5.4-15.8-8.1-27.7-8.1l0.4-37.1c25.4,0,45.1,5.8,59.1,17.3s21,27.8,21,48.7
			c0,14.5-3.6,27.6-10.8,39.5c-7.2,11.9-18.1,22.4-32.5,31.6c-8.3,5.5-14.6,11.4-18.8,17.9c-4.2,6.4-6.2,13.5-6.2,21.2v16
			L272.7,357.3L272.7,357.3z"/>
	</g>
</g>
<circle class="st4" cx="196.5" cy="373.5" r="125"/>
<circle class="st5" cx="395.5" cy="363.5" r="125"/>
<circle class="st6" cx="300" cy="199" r="125"/>
<g>
	<g>
		<path d="M270.7,127c0,2.6-1.2,16.1-3.7,40.5c-0.5,1.3-1.6,2-3.4,2c-8,0-18.6-0.2-32-0.7c-16.1-0.5-26.8-0.7-32-0.7
			c0,8.3,0.2,20.7,0.7,37.2c0.5,16.5,0.7,28.9,0.7,37.2c0,6.3-8.2,9.5-24.7,9.5c-10.7,0-17.9-1-21.5-2.9c-1.5-1-2.3-3-2.4-6.1
			c-0.3-9.3-0.2-21.7,0.2-37.4c0.5-19,0.7-31.6,0.7-37.6c-4.4,0-14.7,0.2-31,0.7c-12.7,0.5-23,0.7-31,0.7c-2.8,0-4.2-1.1-4.2-3.4
			c0-1.1,0.7-7.6,2.2-19.5c0-6.5,0.3-13.5,1-21c1.1-1.8,3-2.7,5.6-2.7c-4.7,0,14.4,0.6,57.4,1.7c0-8-0.1-20.1-0.2-36.4
			c-0.2-16.3-0.2-28.5-0.2-36.6c0-2.8,1.5-4.2,4.6-4.2c4.1,0,10.3-0.1,18.7-0.4c8.4-0.2,14.6-0.4,18.7-0.4c4.1,0,6.1,2.3,6.1,6.8
			c0,7.8-0.2,19.6-0.7,35.4c-0.5,15.8-0.7,27.7-0.7,35.6c7.3,0,18.4-0.1,33.2-0.2c14.8-0.2,25.9-0.2,33.2-0.2
			C269.1,124.1,270.7,125.1,270.7,127z"/>
		<path d="M474.7,118.7l-0.2,2.2c-1.5,5.7-3.4,14.1-5.9,25.1c-0.5,5.4-1.5,13.2-3.2,23.4c-0.3,1.5-5,2.4-13.9,2.9
			c-6.2,0.3-15,0.3-26.4,0c-14.6-0.3-21.5-0.5-20.5-0.5c-10.1,0-25.1,0.9-44.9,2.8c-19.9,1.9-34.8,2.8-44.7,2.8
			c-4.4,0-6.6-2.7-6.6-8.1c0-7.5,4.7-23,14.2-46.6c0.8-2.3,3.1-3.4,6.8-3.4c5.7,0,14.1,0.2,25.1,0.6c11.1,0.4,19.4,0.6,25.1,0.6
			c9.9,0,24.9-1,44.9-3.1c20-2,35-3.1,44.9-3.1C473.1,114.6,474.8,116,474.7,118.7z"/>
	</g>
</g>
<rect x="95.5" y="205.7" class="st7" width="493" height="464.5"/>
<text transform="matrix(1 0 0 1 95.5 516.6626)"><tspan x="0" y="0" class="st8 st9">/ </tspan><tspan x="187.6" y="0" class="st8 st10">x</tspan></text>
</svg>
